<?xml version="1.0"?>
<svg xmlns="http://www.w3.org/2000/svg" xmlns:xlink="http://www.w3.org/1999/xlink" xmlns:svgjs="http://svgjs.com/svgjs" version="1.1" width="512" height="512" x="0" y="0" viewBox="0 0 128 128" style="enable-background:new 0 0 512 512" xml:space="preserve" class=""><g><path xmlns="http://www.w3.org/2000/svg" d="m99.267 21.828c-18.431-24.574-44.9-2.363-46.313-1.89-1.418-.473-27.882-22.684-46.313 1.89s11.815 64.744 46.313 84.12c34.499-19.376 64.746-59.548 46.313-84.12z" fill="#d81b60" data-original="#ef5361" style="" class=""/><path xmlns="http://www.w3.org/2000/svg" d="m52.954 105.948q-2.99-1.681-5.931-3.567c33.452-19.861 61.839-58.708 43.848-82.7a29.212 29.212 0 0 0 -11.014-9.35c6.557.453 13.411 3.493 19.407 11.491 18.436 24.578-11.811 64.752-46.31 84.126z" fill="#e91e63" data-original="#da2a47" style="" class=""/><path xmlns="http://www.w3.org/2000/svg" d="m52.954 107.094-.489-.275c-25.992-14.598-47.185-39.213-51.537-59.859-2.095-9.935-.442-18.593 4.913-25.732 7.8-10.4 22.2-19.348 46.475-2.881.226.152.454.308.641.431l.637-.431c24.276-16.468 38.674-7.522 46.475 2.881 5.354 7.14 7.008 15.8 4.913 25.732-4.353 20.646-25.545 45.261-51.537 59.859zm-25.104-95.766c-9.486 0-16.058 5.3-20.409 11.1-4.994 6.658-6.527 14.772-4.556 24.119 4.215 20 24.768 43.883 50.069 58.251 25.3-14.368 45.854-38.256 50.069-58.251 1.971-9.346.438-17.461-4.556-24.12-7.281-9.708-20.783-18.008-43.752-2.427a7.3 7.3 0 0 1 -1.444.885l-.316.105-.316-.105a7.3 7.3 0 0 1 -1.446-.885c-9.244-6.269-16.955-8.672-23.343-8.672z" fill="#c2185b" data-original="#2f3a5a" style="" class=""/><path xmlns="http://www.w3.org/2000/svg" d="m122.859 56.208c-13.477-17.97-32.83-1.728-33.866-1.382-1.037-.346-20.389-16.587-33.866 1.382s8.639 47.344 33.866 61.512c25.227-14.168 47.344-43.542 33.866-61.512z" fill="#d81b60" data-original="#ef5361" style="" class=""/><path xmlns="http://www.w3.org/2000/svg" d="m88.993 117.721q-2.187-1.229-4.337-2.608c24.462-14.523 45.219-42.93 32.064-60.471a21.361 21.361 0 0 0 -8.054-6.837c4.795.331 9.806 2.554 14.192 8.4 13.481 17.971-8.638 47.349-33.865 61.516z" fill="#e91e63" data-original="#da2a47" style="" class=""/><path xmlns="http://www.w3.org/2000/svg" d="m88.993 118.868-.489-.275c-19.069-10.71-34.621-28.784-37.818-43.951-1.548-7.344-.323-13.748 3.642-19.033 5.774-7.7 16.424-14.329 34.35-2.168l.317.215.315-.215c17.927-12.162 28.573-5.533 34.35 2.168 3.965 5.286 5.189 11.689 3.642 19.033-3.2 15.167-18.749 33.241-37.818 43.951zm-18.346-70.058c-6.846 0-11.584 3.817-14.721 8-3.6 4.8-4.708 10.665-3.284 17.42 3.061 14.516 17.972 31.863 36.351 42.343 18.379-10.48 33.29-27.827 36.351-42.343 1.424-6.755.318-12.616-3.284-17.42-5.253-7-15-12.987-31.628-1.713a5.463 5.463 0 0 1 -1.122.68l-.316.105-.316-.105a5.463 5.463 0 0 1 -1.122-.68c-6.702-4.546-12.285-6.287-16.909-6.287z" fill="#c2185b" data-original="#2f3a5a" style="" class=""/></g></svg>
